<svg width="270" height="40" viewBox="0 0 270 40" fill="none" xmlns="http://www.w3.org/2000/svg">
  <g transform="translate(2, 2) scale(1.28)">
    <rect width="28" height="28" rx="7" fill="#000000"/>
    <path d="M7.5 18.5V12c0-1.7 1.3-3 3-3s3 1.3 3 3v6.5h-2.3V12c0-.4-.3-.7-.7-.7s-.7.3-.7.7v6.5H7.5zm6.8 0V12c0-1.7 1.3-3 3-3s3 1.3 3 3v6.5H18V12c0-.4-.3-.7-.7-.7s-.7.3-.7.7v6.5h-2.3z" fill="#ffffff"/>
  </g>
  <text x="52" y="28" font-family="Inter, -apple-system, BlinkMacSystemFont, 'Segoe UI', Roboto, sans-serif" font-size="24" font-weight="700" letter-spacing="-0.02em" fill="#000000">Maya Payments</text>
</svg>
